<svg xmlns="http://www.w3.org/2000/svg" width="382.8" height="202.4" viewBox="0 0 101.28 53.55">
  <g fill="none" stroke="currentColor" stroke-linecap="round" stroke-linejoin="round">
    <path stroke-width="2.4" d="M11.55 34.48v15.58c0 2.6-5.2 2.6-5.2 0V21.49v12.99c0 5.2-5.19 5.2-5.19 0V16.3h10.4m0 18.18v15.58c0 2.6 5.19 2.6 5.19 0V21.49v12.99c0 5.2 5.19 5.2 5.19 0V16.3H11.55"/>
    <path stroke-width="2.33" d="M11.64 12.8h8.15V7.9h-4.66l-1.16-2.07h-3.5L7 1.16S5.82 4.12 5.82 5.82c0 1.94 0 4.66 1.17 6.99z"/>
    <path stroke-width="2.4" d="M40.66 34.48v15.58c0 2.6-5.2 2.6-5.2 0V21.49v12.99c0 5.2-5.2 5.2-5.2 0V16.3h10.4m0 18.18v15.58c0 2.6 5.19 2.6 5.19 0V21.49v12.99c0 5.2 5.2 5.2 5.2 0V16.3h-10.4"/>
    <path stroke-width="2.33" d="M40.75 12.8h5.82l1.16-3.49-2.03-.71-1.46-2.52-3.5-.26v-3.5c-2.68 0-4.06.3-5.22 3.8-.64 2.32-.34 4.36.57 6.69z"/>
    <path stroke-width="2.4" d="M69.76 34.48v15.58c0 2.6-5.2 2.6-5.2 0V21.49v12.99c0 5.2-5.19 5.2-5.19 0V16.3h10.39m0 18.18v15.58c0 2.6 5.2 2.6 5.2 0V21.49v12.99c0 5.2 5.19 5.2 5.19 0V16.3H69.76"/>
    <path stroke-width="2.33" d="M69.85 12.8h9.31l1.17-3.49-5.53-.71-1.46-2.52-3.49-.26-10.48-3.5L64 7.25l1.2 5.57zM84.98 52.39h15.14v-2.33l-5.82-2.33h-3.5l-5.82 2.33zM90.8 47.73V24.45h3.5v23.28Z"/>
  </g>
</svg>